<?xml version="1.0" encoding="utf-8"?>
<!-- Generator: Adobe Illustrator 15.0.2, SVG Export Plug-In . SVG Version: 6.00 Build 0)  -->
<!DOCTYPE svg PUBLIC "-//W3C//DTD SVG 1.1//EN" "http://www.w3.org/Graphics/SVG/1.1/DTD/svg11.dtd">
<svg version="1.1" id="Layer_1" xmlns="http://www.w3.org/2000/svg" xmlns:xlink="http://www.w3.org/1999/xlink" x="0px" y="0px"
	 width="260.169px" height="131.355px" viewBox="0 0 260.169 131.355" enable-background="new 0 0 260.169 131.355"
	 xml:space="preserve">
<g>
	<path fill="#FFFFFF" d="M260.169,23.437c0,1.559-1.275,2.834-2.835,2.834H2.834C1.275,26.271,0,24.996,0,23.437V2.834
		C0,1.275,1.275,0,2.834,0h254.5c1.56,0,2.835,1.275,2.835,2.834V23.437z"/>
</g>
<g>
	<path fill="#FFFFFF" d="M260.169,75.979c0,1.559-1.275,2.834-2.835,2.834H2.834C1.275,78.813,0,77.538,0,75.979V55.376
		c0-1.559,1.275-2.834,2.834-2.834h254.5c1.56,0,2.835,1.275,2.835,2.834V75.979z"/>
</g>
<g>
	<path fill="#FFFFFF" d="M260.169,128.521c0,1.559-1.275,2.834-2.835,2.834H2.834c-1.559,0-2.834-1.275-2.834-2.834v-20.602
		c0-1.559,1.275-2.834,2.834-2.834h254.5c1.56,0,2.835,1.275,2.835,2.834V128.521z"/>
</g>
</svg>
