<?xml version="1.0" encoding="UTF-8" standalone="no"?>
<svg width="251px" height="443px" xmlns="http://www.w3.org/2000/svg" version="1.1">
<path id="iphone" d="M226,371 L24,371 L24,71 L226,71 L226,71 L226,371 M125,425 C114,425 104,415 104,404 C104,393 114,384 125,384 C136,384 145,393 145,404 C145,415 136,425 125,425 M104,27 L146,27 L146,41 L104,41 L104,41 L104,27 M218,0 L32,0 C14,0 0,14 0,32 L0,409 C0,427 14,442 32,442 L218,442 C235,442 250,427 250,409 L250,32 C250,14 235,0 218,0" fill="rgb(0,0,0)"></path>
</svg>